<svg width="369" height="173" viewBox="0 0 369 173" fill="none" xmlns="http://www.w3.org/2000/svg">
<path d="M126.211 2.2C118.81 6 117.626 8.8 116.836 24.7C115.849 42.3 116.836 65.8 118.612 70.3C121.573 77.2 124.632 78.7 179.795 98.1C190.552 101.9 200.716 105 202.295 105C204.17 105 206.44 103.9 208.808 101.6C211.867 98.8 212.558 97.4 213.15 92.4C213.545 89.2 213.94 84 213.94 80.9C214.038 75.5 214.137 75.2 216.9 74.7C218.38 74.4 221.045 72.9 222.821 71.4C228.643 66.4 228.841 65.6 228.841 37.8C228.841 13.5 228.742 12.3 226.571 8.6C225.189 6.1 222.722 3.8 220.058 2.3L215.716 -1.56462e-06H173.184C130.948 -1.56462e-06 130.553 -1.56462e-06 126.211 2.2ZM217.985 5.5C219.564 6.3 221.735 8.3 222.821 9.9C224.795 12.7 224.893 14.1 224.893 38V63.2L221.045 67.1C214.63 73.6 214.433 73.2 213.643 54.9C213.15 41.4 212.755 38.2 211.176 35.6C208.808 31.9 204.762 28.7 198.446 25.7L193.808 23.5L203.479 23C208.709 22.7 213.051 22.2 213.051 21.7C213.051 21.3 213.051 20.5 213.051 20C213.051 19.4 206.637 19 195.881 19H178.71L159.566 12.3C149.105 8.7 140.125 5.3 139.632 4.8C139.04 4.4 155.816 4 176.835 4C208.808 4 215.617 4.2 217.985 5.5ZM162.23 17.5C180.684 23.9 197.657 30 200.025 31.2C202.591 32.4 205.354 34.9 206.933 37.3L209.598 41.4V67.5C209.598 91 209.4 93.9 207.821 96.3C204.367 101.8 202.69 101.8 187.69 96.5C156.013 85.5 127.593 74.7 125.816 73.2C121.573 69.3 121.277 67.3 121.277 40.5C121.277 13.1 121.573 11 126.408 7.6C127.593 6.7 128.678 6 128.678 6C128.678 6 143.776 11.2 162.23 17.5Z" fill="#0E49B5"/>
<path d="M127.79 18.2C126.803 22.1 127.198 57.3 128.283 61.3C130.356 69.1 131.836 69.9 166.079 81.4C187.197 88.5 197.953 91.7 198.644 91C199.334 90.3 199.334 89.7 198.644 89C198.052 88.4 183.841 83.2 167.065 77.4C145.454 70 135.882 66.2 134.106 64.5C131.441 61.8 131.639 63.4 131.342 34.2C131.145 19.5 130.849 16 129.764 16C129.073 16 128.185 17 127.79 18.2Z" fill="#54E346"/>
<path d="M181.078 59.9C180.19 61.4 182.559 62.6 191.44 65.4C201.604 68.5 203.479 68.6 202.986 66.3C202.788 65.1 200.124 63.7 194.302 61.9C185.322 59 181.868 58.5 181.078 59.9Z" fill="#0E49B5"/>
<path d="M252.298 131.455C250.723 135.509 239.836 162.754 238.022 167.206C237.353 168.867 236.78 170.395 236.78 170.661C236.78 170.994 237.64 171.193 238.69 171.193C240.505 171.193 240.6 171.06 242.319 166.674C244.229 161.89 250.484 146.141 252.394 141.423C253.014 139.895 253.683 138.632 253.874 138.632C254.16 138.632 257.407 146.54 264.426 164.348L267.1 171.193H269.153H271.206L269.678 167.339C268.866 165.279 267.148 161.026 265.906 157.903C264.665 154.78 262.23 148.799 260.558 144.613C258.84 140.426 256.691 134.977 255.688 132.452C254.733 129.994 253.874 128 253.778 128C253.683 128 253.062 129.595 252.298 131.455Z" fill="#0E49B5"/>
<path d="M13.3718 130.126C9.64749 130.724 6.25745 133.449 3.34488 138.167C-2.81449 148.201 -0.188405 163.086 8.93129 169.332C11.7961 171.326 12.5123 171.525 16.4276 171.525C21.3455 171.525 23.7806 170.329 27.4572 166.143C29.176 164.149 31.5157 159.963 30.8949 159.896C30.7994 159.896 28.5076 158.833 25.786 157.571C21.2023 155.444 20.7248 155.311 19.9609 156.308C18.8149 157.77 15.5681 158.235 13.8015 157.238C10.7457 155.511 9.93398 149.198 12.2736 145.942C14.2312 143.217 16.5708 142.818 19.1969 144.613L21.3455 146.075L25.786 143.948C28.2689 142.752 30.4652 141.489 30.704 141.224C31.3247 140.426 26.359 133.515 23.9716 131.921C21.3455 130.193 17.3825 129.462 13.3718 130.126Z" fill="#54E346"/>
<path d="M72.5304 142.088C72.5304 149.198 72.3871 158.7 72.1961 163.086L71.9097 171.193H77.2096H82.5572V164.216C82.5572 160.361 82.6527 157.238 82.7482 157.238C82.8915 157.238 85.2311 159.232 88.0004 161.69C96.8336 169.598 100.367 172.655 101.035 172.987C101.561 173.253 101.656 169.532 101.656 151.656V129.994H96.4038H91.1517V137.968C91.1517 142.353 91.0084 145.942 90.8652 145.942C90.722 145.942 86.8067 142.353 82.223 137.901C77.5916 133.515 73.5331 129.728 73.1988 129.528C72.6259 129.263 72.5304 131.522 72.5304 142.088Z" fill="#54E346"/>
<path d="M46.938 130.592C44.2642 131.522 40.9696 134.246 38.821 137.17C33.7598 144.214 33.5688 155.643 38.3913 163.485C41.6381 168.734 48.9911 172.057 54.0523 170.661C62.1694 168.402 67.4215 160.561 67.4215 150.593C67.4693 139.43 60.9757 130.857 52.0947 130.259C50.0893 130.126 47.7497 130.259 46.938 130.592ZM54.7685 145.144C57.6811 148.068 57.8721 151.856 55.3415 155.311C54.1478 156.972 53.6226 157.238 51.283 157.238C48.8479 157.238 48.4182 157.039 46.938 154.979C45.0759 152.387 44.8371 149.862 46.1263 147.271C48.0362 143.284 51.9992 142.353 54.7685 145.144Z" fill="#54E346"/>
<path d="M107.481 132.12L107.625 134.313L113.259 134.512L118.845 134.711V152.919V171.193H120.516H122.188V152.919V134.645H128.156H134.124V132.319V129.993H120.707H107.338L107.481 132.12Z" fill="#0E49B5"/>
<path d="M142.719 150.527V171.193H144.39H146.061V164.548V157.903H152.507H158.905L159.717 160.361C160.194 161.757 161.292 164.747 162.247 167.006C163.87 170.994 164.014 171.193 165.733 171.193C166.735 171.193 167.547 170.994 167.547 170.794C167.547 170.528 166.401 167.472 164.969 163.883L162.39 157.305L163.727 156.574C165.589 155.511 166.831 153.451 168.072 149.663C170.078 143.284 168.215 134.911 164.061 131.788C162.199 130.459 161.34 130.326 152.411 130.126L142.719 129.927V150.527ZM161.77 135.841C165.255 138.3 166.497 143.616 164.73 148.467C163.107 152.919 161.77 153.517 153.366 153.783L146.061 154.049V144.347V134.645H153.127C158.857 134.645 160.433 134.844 161.77 135.841Z" fill="#0E49B5"/>
<path d="M184.115 130.658C180.152 132.053 175.903 136.373 173.993 140.891C172.513 144.48 171.94 150.992 172.752 155.71C174.471 165.545 183.638 172.854 191.516 170.595C198.726 168.535 203.357 162.621 204.79 153.517C205.363 150.062 204.838 145.41 203.453 141.689C202.355 138.566 198.583 133.914 195.718 132.12C192.758 130.326 187.171 129.595 184.115 130.658ZM195.384 137.17C203.31 143.284 203.119 157.836 195.002 164.016C192.949 165.611 192.041 165.877 188.651 165.877C183.924 165.877 181.346 164.481 178.72 160.428C175.521 155.511 174.852 150.194 176.667 144.613C177.861 140.891 179.197 138.898 181.633 137.104C184.45 135.11 186.073 134.645 189.654 134.977C192.137 135.177 193.522 135.708 195.384 137.17Z" fill="#0E49B5"/>
<path d="M208.132 150.593V171.193H221.263H234.393V168.867V166.541H223.172H211.952V148.267V129.993H210.042H208.132V150.593Z" fill="#0E49B5"/>
<path d="M282.856 130.392C279.419 131.455 277.365 132.386 275.599 133.781C270.299 137.901 269.344 145.942 273.689 149.663C276.363 151.856 277.413 152.122 286.199 152.52C295.509 152.985 297.037 153.451 298.326 156.707C298.995 158.301 298.995 158.7 298.279 160.827C296.703 165.345 290.257 167.87 283.477 166.541C279.228 165.678 276.554 163.684 275.312 160.361C274.501 158.169 274.214 157.903 272.543 157.903C270.729 157.903 270.681 157.969 270.967 159.697C271.54 163.219 272.829 165.412 275.599 167.538C284.241 174.183 299.425 171.193 301.955 162.355C303.34 157.504 302.194 153.318 298.756 150.593C296.846 149.131 296.035 148.998 287.392 148.6C277.365 148.201 276.41 147.869 275.217 144.546C274.596 142.885 274.548 142.287 275.074 140.825C275.838 138.632 278.273 136.24 280.899 135.177C283.907 133.848 290.544 134.113 293.217 135.509C295.653 136.838 297.897 139.961 297.897 142.021C297.897 143.084 298.231 143.284 299.854 143.284C301.812 143.284 301.812 143.284 301.525 141.157C300.809 136.306 296.703 132.12 291.26 130.658C288.729 129.993 284.718 129.861 282.856 130.392Z" fill="#0E49B5"/>
<path d="M317.234 130.392C310.836 132.519 309.165 133.648 307.064 136.971C305.202 139.895 304.772 142.021 305.489 145.277C306.061 148.068 308.449 150.66 311.552 151.856C312.555 152.254 316.757 152.587 320.815 152.587C327.118 152.587 328.503 152.786 330.269 153.916C333.038 155.643 333.516 157.703 332.179 161.624C330.412 166.874 318.476 168.668 312.698 164.548C310.932 163.285 308.879 160.096 308.879 158.634C308.879 158.235 308.019 157.903 306.969 157.903C304.82 157.903 304.772 158.102 305.823 161.89C307.16 166.475 310.932 169.399 317.234 170.661C324.826 172.19 332.991 169.199 335.521 163.95C337.049 160.694 336.954 156.042 335.33 153.251C332.991 149.397 331.893 148.998 322.964 148.799C313.033 148.533 312.173 148.334 310.311 146.207C305.059 140.028 315.563 131.788 325.208 134.579C328.598 135.575 331.606 138.499 332.036 141.224C332.322 143.084 332.513 143.284 334.184 143.284C335.808 143.284 335.999 143.151 335.76 141.755C334.948 136.705 332.848 133.848 328.455 131.655C326.306 130.592 319.049 129.794 317.234 130.392Z" fill="#0E49B5"/>
<path d="M341.824 150.593V171.193H354.954H368.085V168.867V166.541H356.626H345.166V159.232V151.922H355.432H365.697V149.929V147.935H355.432H345.166V141.29V134.645H356.626H368.085V132.319V129.993H354.954H341.824V150.593Z" fill="#0E49B5"/>
<path d="M252.68 165.345C251.487 166.143 251.2 169.066 252.155 170.395C253.062 171.658 254.781 171.326 255.593 169.731C256.548 167.804 256.548 167.472 255.402 165.877C254.304 164.348 254.16 164.348 252.68 165.345Z" fill="#0E49B5"/>
<line x1="42.2928" y1="115.5" x2="338.293" y2="115.5" stroke="#0E49B5"/>
</svg>
